<svg width="630" height="215" viewBox="0 0 630 215" fill="none" xmlns="http://www.w3.org/2000/svg">
<path d="M154.227 118.945C154.227 119.64 154.103 120.336 153.854 121.031C153.606 121.726 153.333 122.372 153.035 122.968C152.737 123.564 152.265 124.185 151.619 124.83C150.974 125.476 150.427 126.022 149.98 126.469C149.533 126.916 148.888 127.438 148.043 128.034C147.199 128.63 146.553 129.102 146.106 129.449C145.659 129.797 145.014 130.244 144.169 130.79C143.325 131.337 142.754 131.709 142.456 131.908C140.469 134.093 136.446 136.279 130.387 138.464C121.745 143.232 115.636 145.715 112.06 145.914C110.769 146.411 109.626 146.659 108.633 146.659C106.845 146.758 103.865 146.361 99.693 145.467C94.1303 144.176 89.9832 143.033 87.2515 142.04C84.5198 141.047 79.429 138.911 71.979 135.633C65.6216 132.554 58.3206 131.014 50.076 131.014C43.3213 131.014 39.3976 131.362 38.305 132.057C37.2123 133.15 35.474 137.868 33.09 146.212C32.8913 146.609 32.792 147.007 32.792 147.404C32.2953 149.192 31.6 150.409 30.706 151.055C29.812 151.7 28.173 152.023 25.789 152.023C23.0076 152.023 21.3438 151.576 20.7975 150.682C20.2511 149.788 19.978 146.51 19.978 140.848V129.524C13.72 127.537 7.36265 125.451 0.905981 123.266L0.309981 108.217C-0.0873527 100.966 -0.0625193 96.5453 0.384481 94.956C0.831481 93.3667 2.34631 92.0257 4.92898 90.933C8.60431 89.5423 14.912 88.7477 23.852 88.549C27.2293 88.3503 29.4146 88.251 30.408 88.251C31.5006 88.251 32.9161 87.8785 34.6545 87.1335C36.3928 86.3885 37.4358 85.8422 37.7835 85.4945C38.1311 85.1468 38.901 83.7313 40.093 81.248C41.285 78.864 42.1293 76.8277 42.626 75.139C43.0233 73.649 43.967 70.371 45.457 65.305C47.4437 57.557 48.9833 53.087 50.076 51.895C51.7647 49.511 53.7017 44.6685 55.887 37.3675C58.0723 30.0665 58.7428 26.0435 57.8985 25.2985C57.0541 24.5535 52.5096 26.118 44.265 29.992C33.3383 35.2567 27.5273 35.7037 26.832 31.333V29.992C26.832 28.3033 27.6515 26.2422 29.2905 23.8085C30.9295 21.3748 32.792 19.1895 34.878 17.2525C36.964 15.3155 38.6526 14.347 39.944 14.347C41.6326 14.347 46.202 12.708 53.652 9.42999C60.4067 6.35066 67.1613 4.16533 73.916 2.87399C92.2927 -0.205335 105.504 0.241665 113.55 4.215C118.318 6.79766 122.465 11.7395 125.991 19.0405C129.518 26.3415 131.281 33.6177 131.281 40.869C131.281 47.425 129.418 55.0985 125.693 63.8895C121.968 72.6805 117.821 78.9633 113.252 82.738C109.577 85.5193 105.206 90.2873 100.14 97.042C95.2726 103.201 90.3557 108.664 85.389 113.432C81.4157 117.306 79.5035 120.286 79.6525 122.372C79.8015 124.458 82.26 126.693 87.028 129.077C90.902 131.064 95.3223 132.107 100.289 132.206C108.037 132.305 116.033 130.468 124.278 126.693C125.569 126.097 128.053 125.551 131.728 125.054C137.191 121.975 141.711 119.044 145.287 116.263C147.671 114.276 149.757 113.457 151.545 113.804C153.333 114.152 154.227 115.866 154.227 118.945ZM20.574 115.369C23.4546 116.064 25.9876 114.872 28.173 111.793C30.3583 108.714 30.557 106.081 28.769 103.896C27.4776 102.207 26.1118 101.313 24.6715 101.214C23.2311 101.115 21.021 101.711 18.041 103.002C13.6703 104.691 11.7581 106.801 12.3045 109.334C12.8508 111.867 15.6073 113.879 20.574 115.369ZM70.638 103.002C75.2073 99.0287 79.8263 94.4593 84.495 89.294C93.435 80.2547 100.289 72.0845 105.057 64.7835C109.825 57.4825 112.805 50.4795 113.997 43.7745C115.189 37.0695 114.593 30.737 112.209 24.777L108.633 15.241L99.097 14.943C92.3423 14.7443 86.879 15.092 82.707 15.986C79.429 16.582 77.4671 17.4263 76.8215 18.519C76.1758 19.6117 75.555 22.989 74.959 28.651C74.2637 36.5977 72.277 43.0543 68.999 48.021C65.5223 52.9877 62.6913 59.0967 60.506 66.348C58.5193 73.5 56.9796 77.97 55.887 79.758C54.5957 81.9433 53.652 85.569 53.056 90.635C52.5593 94.0123 52.5345 96.4212 52.9815 97.8615C53.4285 99.3018 54.9433 101.214 57.526 103.598L63.188 109.26L70.638 103.002ZM290.59 125.203C292.08 125.898 292.825 127.587 292.825 130.269C292.924 133.249 291.236 135.981 287.759 138.464C286.468 139.358 285.027 140.252 283.438 141.146C283.14 141.345 282.792 141.543 282.395 141.742C281.104 142.537 279.961 142.934 278.968 142.934C276.087 143.133 273.306 141.99 270.624 139.507C270.028 138.911 269.333 137.918 268.538 136.527L268.091 135.782C267.197 134.391 266.377 133.522 265.632 133.174C264.887 132.827 263.969 132.901 262.876 133.398C261.485 134.193 259.846 136.527 257.959 140.401C257.065 142.388 256.37 143.778 255.873 144.573C254.88 145.864 254.01 146.907 253.265 147.702C252.52 148.497 251.8 148.993 251.105 149.192C249.317 149.987 246.983 151.328 244.102 153.215C240.427 155.4 236.95 156.543 233.672 156.642C229.897 157.039 227.166 157.486 225.477 157.983C224.881 158.082 224.335 158.132 223.838 158.132C222.845 158.132 221.951 157.933 221.156 157.536C220.063 157.039 218.375 155.748 216.09 153.662C213.805 151.477 212.216 149.54 211.322 147.851C210.428 146.162 209.584 143.182 208.789 138.911C207.299 132.057 206.951 126.544 207.746 122.372C207.945 120.783 208.491 118.895 209.385 116.71C207.696 117.207 206.728 117.38 206.479 117.231C206.231 117.082 205.263 116.933 203.574 116.784C201.885 116.635 200.246 116.511 198.657 116.412H196.273C193.889 124.557 190.909 131.362 187.333 136.825C186.737 137.62 186.091 138.737 185.396 140.177C184.701 141.618 183.98 142.909 183.235 144.051C182.49 145.194 181.572 146.162 180.479 146.957C174.32 151.824 168.013 154.705 161.556 155.599C153.808 156.692 147.749 153.861 143.378 147.106C141.987 145.02 140.895 142.934 140.1 140.848C139.901 140.153 139.727 139.333 139.578 138.389C139.429 137.446 139.305 136.477 139.206 135.484C139.107 134.491 138.958 133.696 138.759 133.1C138.56 132.603 138.386 131.982 138.237 131.237C138.088 130.492 138.064 128.928 138.163 126.544C138.262 124.16 138.635 121.701 139.28 119.168C139.926 116.635 141.242 113.581 143.229 110.005C145.216 106.429 147.798 102.903 150.977 99.426C150.977 99.2273 151.101 98.9045 151.349 98.4575C151.598 98.0105 152.293 97.1662 153.435 95.9245C154.578 94.6828 155.944 93.5157 157.533 92.423C159.122 91.3303 161.481 90.1135 164.61 88.7725C167.739 87.4315 171.291 86.2643 175.264 85.271C177.449 83.2843 180.106 82.291 183.235 82.291C186.364 82.291 189.022 83.2843 191.207 85.271C193.889 87.8537 196.174 91.4297 198.061 95.999C199.253 98.681 199.7 101.015 199.402 103.002C199.203 104.393 198.955 105.734 198.657 107.025C205.014 106.926 210.676 106.379 215.643 105.386C219.517 99.5253 223.143 95.254 226.52 92.572C230.394 89.3933 235.212 87.1087 240.973 85.718C243.754 85.2213 246.188 84.1783 248.274 82.589C251.651 80.503 254.631 79.7083 257.214 80.205C259.697 80.7017 262.578 82.6883 265.856 86.165C267.545 88.0523 268.786 89.592 269.581 90.784C270.276 91.8767 270.798 92.9693 271.145 94.062C271.493 95.1547 271.667 96.6943 271.667 98.681C271.667 107.224 271.915 113.829 272.412 118.498C272.611 119.988 272.859 121.254 273.157 122.297C273.455 123.34 273.976 124.334 274.721 125.277C275.466 126.221 276.137 126.991 276.733 127.587C277.329 128.183 278.322 129.027 279.713 130.12L280.011 129.971C281.7 128.779 282.941 127.885 283.736 127.289C286.617 125.104 288.901 124.408 290.59 125.203ZM184.8 97.042C184.701 96.9427 184.403 96.8682 183.906 96.8185C183.409 96.7688 183.161 96.8433 183.161 97.042C183.062 100.419 183.757 103.002 185.247 104.79C185.545 102.903 185.644 101.313 185.545 100.022C185.545 98.4327 185.297 97.4393 184.8 97.042ZM179.436 126.693C179.635 126.196 179.858 125.575 180.106 124.83C180.355 124.085 180.553 123.415 180.702 122.819C180.851 122.223 181.075 121.577 181.373 120.882C181.671 120.187 182.019 119.64 182.416 119.243C182.615 118.349 182.962 116.511 183.459 113.73C178.989 111.048 175.612 106.876 173.327 101.214C172.632 99.3267 172.135 97.489 171.837 95.701C163.195 100.866 157.235 107.224 153.957 114.773C151.871 119.342 150.58 122.422 150.083 124.011C149.984 124.508 149.909 125.054 149.859 125.65C149.81 126.246 149.81 126.867 149.859 127.512C149.909 128.158 149.959 128.68 150.008 129.077C150.058 129.474 150.157 130.095 150.306 130.939C150.455 131.784 150.58 132.355 150.679 132.653C151.176 135.434 152.119 137.62 153.51 139.209C154.901 140.798 156.987 141.792 159.768 142.189C161.953 142.686 164.114 142.686 166.249 142.189C168.385 141.692 170.297 140.699 171.986 139.209C173.675 137.719 174.817 135.881 175.413 133.696C175.711 132.703 176.406 131.362 177.499 129.673C178.592 127.984 179.237 126.991 179.436 126.693ZM253.34 122.521C253.638 120.435 253.588 118.895 253.191 117.902C252.794 116.909 251.602 115.419 249.615 113.432C246.436 110.353 244.847 107.82 244.847 105.833C244.847 104.542 244.4 102.952 243.506 101.065C242.612 99.277 241.768 98.085 240.973 97.489C240.377 96.9923 239.781 96.744 239.185 96.744C238.887 96.744 238.589 96.8433 238.291 97.042C237.298 97.5387 235.311 99.3267 232.331 102.406C229.748 104.989 227.364 108.267 225.179 112.24C222.894 116.313 221.206 120.087 220.113 123.564C219.12 126.941 218.971 129.425 219.666 131.014C220.361 132.305 220.808 134.689 221.007 138.166C221.206 140.848 221.553 142.785 222.05 143.977C222.547 145.07 223.242 145.815 224.136 146.212C225.229 146.609 226.967 146.808 229.351 146.808C230.543 146.808 231.536 146.808 232.331 146.808C233.026 146.709 233.697 146.584 234.342 146.435C234.988 146.286 235.609 146.013 236.205 145.616C237 145.219 237.695 144.821 238.291 144.424C238.986 143.927 239.781 143.282 240.675 142.487C244.251 139.606 246.337 137.322 246.933 135.633C247.43 133.845 248.572 131.908 250.36 129.822C251.949 128.233 252.943 125.799 253.34 122.521ZM257.065 105.088C257.363 104.393 257.512 102.853 257.512 100.469C257.512 96.7937 257.115 94.7573 256.32 94.36C256.121 94.5587 255.923 94.7573 255.724 94.956C255.227 95.85 255.277 97.8367 255.873 100.916C256.27 103.101 256.668 104.492 257.065 105.088ZM417.359 125.352C419.544 123.564 421.456 122.844 423.095 123.191C424.734 123.539 425.603 125.104 425.703 127.885C425.703 128.779 425.504 129.673 425.107 130.567C424.709 131.461 424.262 132.231 423.766 132.876C423.269 133.522 422.524 134.242 421.531 135.037C420.537 135.832 419.767 136.428 419.221 136.825C418.675 137.222 417.83 137.793 416.688 138.538C415.546 139.283 414.826 139.755 414.528 139.954C411.448 142.04 408.468 144.275 405.588 146.659C401.714 149.738 397.691 151.874 393.519 153.066C388.651 154.457 384.877 155.202 382.195 155.301C379.413 155.4 375.986 154.854 371.914 153.662C368.04 152.669 364.935 151.353 362.601 149.714C360.267 148.075 358.454 145.964 357.163 143.381C355.871 140.798 355.201 137.545 355.151 133.621C355.101 129.698 355.573 125.253 356.567 120.286C357.461 115.22 358.951 109.111 361.037 101.959C361.633 100.171 361.434 99.277 360.441 99.277C357.759 99.277 352.544 104.045 344.796 113.581C337.048 123.117 331.038 132.057 326.767 140.401C323.787 146.162 321.303 149.639 319.317 150.831C317.33 152.023 315.095 151.427 312.612 149.043C310.526 147.156 309.532 145.343 309.632 143.604C309.731 141.866 311.022 138.166 313.506 132.504C315.592 128.332 316.635 125.451 316.635 123.862C316.635 122.471 317.678 119.591 319.764 115.22C321.154 110.253 321.601 107.621 321.105 107.323C320.012 107.323 317.851 109.086 314.623 112.612C311.395 116.139 308.017 120.36 304.491 125.277C300.965 130.194 298.308 134.342 296.52 137.719C293.738 142.884 291.205 146.162 288.921 147.553C286.636 148.944 284.351 148.646 282.067 146.659C279.881 144.672 279.037 142.214 279.534 139.283C280.03 136.353 282.017 131.56 285.494 124.905C286.487 122.819 287.455 119.764 288.399 115.741C289.343 111.718 290.262 108.863 291.156 107.174C294.434 100.121 298.01 95.105 301.884 92.125C302.778 91.4297 303.721 90.8088 304.715 90.2625C305.708 89.7162 306.726 89.3685 307.769 89.2195C308.812 89.0705 309.507 89.3933 309.855 90.188C310.203 90.9827 310.178 92.3237 309.781 94.211C308.887 97.2903 309.234 98.681 310.824 98.383C312.016 98.2837 313.406 96.9427 314.996 94.36C317.28 90.8833 319.962 88.0523 323.042 85.867C324.234 85.0723 325.227 84.4763 326.022 84.079C327.015 83.6817 327.661 83.4333 327.959 83.334C328.455 83.036 329.151 82.9367 330.045 83.036C330.939 83.1353 331.584 83.2347 331.982 83.334C332.379 83.334 333.174 83.5327 334.366 83.93C335.657 84.3273 336.65 84.5757 337.346 84.675C340.127 85.271 341.518 86.0657 341.518 87.059C341.716 87.2577 341.865 88.7477 341.965 91.529C342.163 92.8203 342.412 93.764 342.71 94.36C343.008 94.956 343.604 95.2292 344.498 95.1795C345.392 95.1298 346.484 94.7822 347.776 94.1365C349.067 93.4908 351.004 92.3237 353.587 90.635C359.547 86.8603 364.662 84.675 368.934 84.079C372.112 83.781 374.099 83.8555 374.894 84.3025C375.688 84.7495 376.533 85.9167 377.427 87.804C378.619 90.8833 378.867 94.807 378.172 99.575C377.476 104.343 376.185 108.813 374.298 112.985C372.112 117.157 371.02 120.336 371.02 122.521C371.02 124.309 370.473 126.941 369.381 130.418C368.288 133.398 368.462 136.179 369.902 138.762C371.342 141.345 373.602 142.934 376.682 143.53C378.47 143.828 380.804 143.679 383.685 143.083C384.479 142.884 389.297 140.898 398.138 137.123C398.138 137.123 399.056 136.577 400.894 135.484C402.732 134.391 404.718 133.224 406.854 131.982C408.99 130.741 411.101 129.474 413.187 128.183C415.273 126.892 416.663 125.948 417.359 125.352ZM572.877 119.392C574.367 120.187 575.112 121.925 575.112 124.607C575.212 127.686 573.473 130.567 569.897 133.249C568.606 134.143 567.116 135.037 565.427 135.931C565.129 136.03 564.782 136.229 564.384 136.527C562.994 137.322 561.802 137.769 560.808 137.868C557.828 138.067 554.948 136.875 552.166 134.292C551.471 133.696 550.726 132.653 549.931 131.163L549.484 130.418C548.59 128.928 547.746 127.984 546.951 127.587C546.157 127.19 545.163 127.289 543.971 127.885C542.481 128.68 540.793 131.113 538.905 135.186C538.011 137.272 537.266 138.712 536.67 139.507C534.783 142.288 533.144 143.878 531.753 144.275C529.965 145.169 527.532 146.56 524.452 148.447C520.678 150.732 517.102 151.973 513.724 152.172C509.85 152.47 506.97 152.867 505.082 153.364C504.586 153.463 504.089 153.513 503.592 153.513C502.5 153.513 501.556 153.314 500.761 152.917C499.569 152.42 497.831 151.079 495.546 148.894C493.063 146.609 491.374 144.598 490.48 142.859C489.586 141.121 488.692 138.067 487.798 133.696C486.308 126.544 485.961 120.807 486.755 116.486C487.55 112.165 489.735 107.124 493.311 101.363C497.881 94.0123 502.202 88.698 506.274 85.42C510.347 82.142 515.363 79.8077 521.323 78.417C524.204 77.821 526.737 76.778 528.922 75.288C532.399 73.0033 535.478 72.159 538.16 72.755C540.743 73.2517 543.723 75.288 547.1 78.864C548.888 80.8507 550.18 82.44 550.974 83.632C551.769 84.824 552.315 85.9663 552.613 87.059C552.911 88.1517 553.06 89.741 553.06 91.827C553.06 100.668 553.358 107.522 553.954 112.389C554.252 115.27 554.923 117.48 555.966 119.019C557.009 120.559 558.822 122.422 561.404 124.607L561.851 124.309C563.639 123.117 564.931 122.173 565.725 121.478C568.705 119.193 571.089 118.498 572.877 119.392ZM538.458 93.764C538.458 89.89 538.061 87.7543 537.266 87.357C537.068 87.5557 536.869 87.804 536.67 88.102C536.174 88.996 536.223 91.0323 536.819 94.211C537.217 96.4957 537.614 97.936 538.011 98.532C538.309 97.7373 538.458 96.148 538.458 93.764ZM534.137 116.71C534.535 114.425 534.485 112.786 533.988 111.793C533.591 110.8 532.349 109.26 530.263 107.174C526.985 103.995 525.346 101.363 525.346 99.277C525.346 97.8863 524.899 96.2473 524.005 94.36C523.111 92.4727 522.217 91.231 521.323 90.635C520.628 90.1383 520.032 89.89 519.535 89.89C519.138 89.89 518.79 89.9893 518.492 90.188C517.499 90.6847 515.463 92.5223 512.383 95.701C509.701 98.383 507.193 101.81 504.859 105.982C502.525 110.154 500.811 114.078 499.718 117.753C498.626 121.23 498.427 123.763 499.122 125.352C499.917 126.842 500.364 129.375 500.463 132.951C500.761 135.633 501.159 137.62 501.655 138.911C502.152 140.004 502.897 140.749 503.89 141.146C504.983 141.643 506.771 141.891 509.254 141.891C510.446 141.891 511.44 141.841 512.234 141.742C513.029 141.742 513.774 141.643 514.469 141.444C515.165 141.245 515.81 140.997 516.406 140.699C517.102 140.302 517.797 139.855 518.492 139.358C519.188 138.861 520.032 138.216 521.025 137.421C524.8 134.441 526.936 132.057 527.432 130.269C528.028 128.382 529.22 126.395 531.008 124.309C532.598 122.62 533.641 120.087 534.137 116.71ZM629.489 127.587C629.489 129.276 627.925 131.66 624.796 134.739C621.667 137.818 619.208 139.855 617.42 140.848C616.228 141.643 614.838 142.412 613.248 143.157C611.659 143.902 610.169 144.573 608.778 145.169C607.388 145.765 606.096 146.286 604.904 146.733C603.712 147.18 602.694 147.578 601.85 147.925C601.005 148.273 600.534 148.447 600.434 148.447C597.951 149.54 595.418 150.285 592.835 150.682C590.253 151.079 588.191 151.303 586.652 151.353C585.112 151.402 583.597 151.725 582.107 152.321C580.617 152.917 579.301 154.159 578.159 156.046C577.016 157.933 575.949 160.764 574.955 164.539C574.26 167.122 573.416 171.89 572.422 178.843C571.429 185.796 570.113 191.707 568.474 196.574C566.835 201.441 564.376 205.464 561.098 208.643C558.615 211.027 556.355 212.616 554.319 213.411C552.282 214.206 550.619 214.305 549.327 213.709C548.036 213.113 546.869 212.12 545.826 210.729C544.783 209.338 544.063 207.6 543.665 205.514C543.268 203.428 542.97 201.342 542.771 199.256C542.573 197.17 542.672 195.084 543.069 192.998C543.765 187.634 545.031 182.295 546.869 176.981C548.706 171.666 551.239 165.359 554.468 158.058C557.696 150.757 559.857 145.715 560.949 142.934C562.439 139.159 563.83 134.689 565.121 129.524C565.221 128.829 565.419 127.587 565.717 125.799C566.015 124.011 566.338 122.496 566.686 121.254C567.033 120.013 567.555 118.895 568.25 117.902C568.648 117.306 569.318 116.561 570.262 115.667C571.205 114.773 572.124 113.904 573.018 113.059C573.912 112.215 574.806 111.346 575.7 110.452C576.594 109.558 577.314 108.589 577.861 107.546C578.407 106.503 578.68 105.436 578.68 104.343C578.68 101.76 580.27 96.1977 583.448 87.655C586.627 79.013 590.203 70.52 594.176 62.176C601.229 46.8787 605.103 38.336 605.798 36.548C606.096 35.952 606.419 35.1325 606.767 34.0895C607.114 33.0465 607.437 32.078 607.735 31.184C608.033 30.29 608.381 29.3215 608.778 28.2785C609.176 27.2355 609.623 26.267 610.119 25.373C610.616 24.479 611.162 23.6595 611.758 22.9145C612.354 22.1695 613.05 21.5487 613.844 21.052C614.639 20.5553 615.533 20.2077 616.526 20.009C619.804 19.5123 622.312 20.456 624.051 22.84C625.789 25.224 626.609 28.055 626.509 31.333C626.41 34.909 625.963 38.6092 625.168 42.4335C624.374 46.2578 623.48 49.66 622.486 52.64C621.493 55.62 620.053 59.1215 618.165 63.1445C616.278 67.1675 614.689 70.3462 613.397 72.6805C612.106 75.0148 610.268 78.3425 607.884 82.6635C605.5 86.9845 603.762 90.1383 602.669 92.125C599.987 97.2903 595.691 104.616 589.781 114.102C583.87 123.589 580.518 129.027 579.723 130.418C579.028 131.511 578.531 132.454 578.233 133.249C577.935 134.044 577.861 134.962 578.01 136.005C578.159 137.048 578.606 137.942 579.351 138.688C580.096 139.432 581.139 139.929 582.48 140.177C583.821 140.426 586.081 140.699 589.259 140.997C591.047 141.196 593.009 141.047 595.145 140.55C597.28 140.053 599.242 139.358 601.03 138.464C602.818 137.57 604.631 136.601 606.469 135.558C608.306 134.515 609.846 133.522 611.088 132.578C612.329 131.635 613.422 130.815 614.366 130.12C615.309 129.425 615.831 129.077 615.93 129.077C618.116 127.587 619.904 126.296 621.294 125.203C623.48 123.316 625.392 122.546 627.031 122.893C628.67 123.241 629.489 124.806 629.489 127.587ZM559.161 170.946C559.062 171.045 558.963 171.244 558.863 171.542C556.38 180.085 556.132 185.548 558.118 187.932C560.403 183.76 561.893 177.999 562.588 170.648C562.688 169.754 562.539 169.108 562.141 168.711C561.545 168.115 560.85 168.165 560.055 168.86C559.658 169.257 559.36 169.953 559.161 170.946Z" fill="#B09920"/>
</svg>
